<mxfile host="app.diagrams.net" modified="2024-05-14T16:24:17.107Z" agent="Mozilla/5.0 (X11; Linux x86_64; rv:123.0) Gecko/20100101 Firefox/123.0" etag="EbYSjiqNIa5t7g_pDelA" version="24.4.0" type="device">
  <diagram id="R2lEEEUBdFMjLlhIrx00" name="Page-1">
    <mxGraphModel dx="2814" dy="1702" grid="1" gridSize="10" guides="1" tooltips="1" connect="1" arrows="1" fold="1" page="1" pageScale="1" pageWidth="850" pageHeight="1100" math="0" shadow="0" extFonts="Permanent Marker^https://fonts.googleapis.com/css?family=Permanent+Marker">
      <root>
        <mxCell id="0" />
        <mxCell id="1" parent="0" />
        <mxCell id="cwMv2yj0uLY75fUcJ7-9-24" style="edgeStyle=orthogonalEdgeStyle;rounded=0;orthogonalLoop=1;jettySize=auto;html=1;entryX=0.5;entryY=0;entryDx=0;entryDy=0;exitX=0;exitY=0.5;exitDx=0;exitDy=0;endArrow=none;endFill=0;" parent="1" source="MZahAP7ZjcBy5LVu-B12-1" target="xNMmBcrmGtZUjo-tdzeP-43" edge="1">
          <mxGeometry relative="1" as="geometry">
            <Array as="points">
              <mxPoint x="80" y="240" />
              <mxPoint x="80" y="285" />
            </Array>
            <mxPoint y="275" as="targetPoint" />
          </mxGeometry>
        </mxCell>
        <mxCell id="MZahAP7ZjcBy5LVu-B12-1" value="Contenido audiovisual" style="whiteSpace=wrap;html=1;align=center;" parent="1" vertex="1">
          <mxGeometry x="353" y="220" width="100" height="40" as="geometry" />
        </mxCell>
        <mxCell id="xNMmBcrmGtZUjo-tdzeP-3" style="rounded=0;orthogonalLoop=1;jettySize=auto;html=1;exitX=1;exitY=0;exitDx=0;exitDy=0;entryX=0;entryY=1;entryDx=0;entryDy=0;endArrow=none;endFill=0;" parent="1" source="MZahAP7ZjcBy5LVu-B12-2" target="MZahAP7ZjcBy5LVu-B12-1" edge="1">
          <mxGeometry relative="1" as="geometry" />
        </mxCell>
        <mxCell id="MZahAP7ZjcBy5LVu-B12-2" value="&lt;div&gt;id&lt;/div&gt;" style="ellipse;whiteSpace=wrap;html=1;align=center;fontStyle=4;" parent="1" vertex="1">
          <mxGeometry x="210" y="315" width="100" height="40" as="geometry" />
        </mxCell>
        <mxCell id="xNMmBcrmGtZUjo-tdzeP-5" style="rounded=0;orthogonalLoop=1;jettySize=auto;html=1;entryX=0;entryY=0;entryDx=0;entryDy=0;endArrow=none;endFill=0;exitX=1;exitY=0.5;exitDx=0;exitDy=0;" parent="1" source="MZahAP7ZjcBy5LVu-B12-3" target="MZahAP7ZjcBy5LVu-B12-1" edge="1">
          <mxGeometry relative="1" as="geometry" />
        </mxCell>
        <mxCell id="MZahAP7ZjcBy5LVu-B12-3" value="descripcion" style="ellipse;whiteSpace=wrap;html=1;align=center;" parent="1" vertex="1">
          <mxGeometry x="220" y="160" width="100" height="40" as="geometry" />
        </mxCell>
        <mxCell id="xNMmBcrmGtZUjo-tdzeP-12" style="rounded=0;orthogonalLoop=1;jettySize=auto;html=1;entryX=1;entryY=0.5;entryDx=0;entryDy=0;endArrow=none;endFill=0;" parent="1" source="MZahAP7ZjcBy5LVu-B12-4" target="MZahAP7ZjcBy5LVu-B12-1" edge="1">
          <mxGeometry relative="1" as="geometry" />
        </mxCell>
        <mxCell id="MZahAP7ZjcBy5LVu-B12-4" value="precio" style="ellipse;whiteSpace=wrap;html=1;align=center;" parent="1" vertex="1">
          <mxGeometry x="533" y="190" width="100" height="40" as="geometry" />
        </mxCell>
        <mxCell id="xNMmBcrmGtZUjo-tdzeP-10" style="rounded=0;orthogonalLoop=1;jettySize=auto;html=1;endArrow=none;endFill=0;entryX=1;entryY=0;entryDx=0;entryDy=0;" parent="1" source="MZahAP7ZjcBy5LVu-B12-5" target="MZahAP7ZjcBy5LVu-B12-1" edge="1">
          <mxGeometry relative="1" as="geometry">
            <mxPoint x="480" y="210" as="targetPoint" />
          </mxGeometry>
        </mxCell>
        <mxCell id="MZahAP7ZjcBy5LVu-B12-5" value="nombre_director" style="ellipse;whiteSpace=wrap;html=1;align=center;" parent="1" vertex="1">
          <mxGeometry x="510" y="100" width="100" height="40" as="geometry" />
        </mxCell>
        <mxCell id="xNMmBcrmGtZUjo-tdzeP-6" style="rounded=0;orthogonalLoop=1;jettySize=auto;html=1;entryX=0.25;entryY=0;entryDx=0;entryDy=0;endArrow=none;endFill=0;" parent="1" source="MZahAP7ZjcBy5LVu-B12-6" target="MZahAP7ZjcBy5LVu-B12-1" edge="1">
          <mxGeometry relative="1" as="geometry" />
        </mxCell>
        <mxCell id="MZahAP7ZjcBy5LVu-B12-6" value="genero" style="ellipse;whiteSpace=wrap;html=1;align=center;" parent="1" vertex="1">
          <mxGeometry x="258" y="110" width="100" height="40" as="geometry" />
        </mxCell>
        <mxCell id="xNMmBcrmGtZUjo-tdzeP-7" style="rounded=0;orthogonalLoop=1;jettySize=auto;html=1;entryX=0.5;entryY=0;entryDx=0;entryDy=0;endArrow=none;endFill=0;exitX=0.5;exitY=1;exitDx=0;exitDy=0;" parent="1" source="MZahAP7ZjcBy5LVu-B12-7" target="MZahAP7ZjcBy5LVu-B12-1" edge="1">
          <mxGeometry relative="1" as="geometry" />
        </mxCell>
        <mxCell id="MZahAP7ZjcBy5LVu-B12-7" value="duracion" style="ellipse;whiteSpace=wrap;html=1;align=center;" parent="1" vertex="1">
          <mxGeometry x="328" y="70" width="100" height="40" as="geometry" />
        </mxCell>
        <mxCell id="xNMmBcrmGtZUjo-tdzeP-8" style="rounded=0;orthogonalLoop=1;jettySize=auto;html=1;entryX=0.75;entryY=0;entryDx=0;entryDy=0;endArrow=none;endFill=0;" parent="1" source="MZahAP7ZjcBy5LVu-B12-8" target="MZahAP7ZjcBy5LVu-B12-1" edge="1">
          <mxGeometry relative="1" as="geometry" />
        </mxCell>
        <mxCell id="MZahAP7ZjcBy5LVu-B12-8" value="&lt;div&gt;fecha_estreno&lt;/div&gt;" style="ellipse;whiteSpace=wrap;html=1;align=center;" parent="1" vertex="1">
          <mxGeometry x="433" y="70" width="100" height="40" as="geometry" />
        </mxCell>
        <mxCell id="xNMmBcrmGtZUjo-tdzeP-11" style="rounded=0;orthogonalLoop=1;jettySize=auto;html=1;entryX=1;entryY=0.25;entryDx=0;entryDy=0;endArrow=none;endFill=0;" parent="1" source="MZahAP7ZjcBy5LVu-B12-9" target="MZahAP7ZjcBy5LVu-B12-1" edge="1">
          <mxGeometry relative="1" as="geometry" />
        </mxCell>
        <mxCell id="MZahAP7ZjcBy5LVu-B12-9" value="valoracion_media" style="ellipse;whiteSpace=wrap;html=1;align=center;" parent="1" vertex="1">
          <mxGeometry x="533" y="145" width="100" height="40" as="geometry" />
        </mxCell>
        <mxCell id="MZahAP7ZjcBy5LVu-B12-31" value="&lt;div&gt;Pelicula&lt;/div&gt;" style="whiteSpace=wrap;html=1;align=center;" parent="1" vertex="1">
          <mxGeometry x="223" y="400" width="100" height="40" as="geometry" />
        </mxCell>
        <mxCell id="MZahAP7ZjcBy5LVu-B12-33" value="&lt;div&gt;Corto&lt;/div&gt;" style="whiteSpace=wrap;html=1;align=center;" parent="1" vertex="1">
          <mxGeometry x="483" y="400" width="100" height="40" as="geometry" />
        </mxCell>
        <mxCell id="MZahAP7ZjcBy5LVu-B12-38" style="rounded=0;orthogonalLoop=1;jettySize=auto;html=1;entryX=0.5;entryY=0;entryDx=0;entryDy=0;endArrow=none;endFill=0;" parent="1" source="MZahAP7ZjcBy5LVu-B12-36" target="MZahAP7ZjcBy5LVu-B12-31" edge="1">
          <mxGeometry relative="1" as="geometry" />
        </mxCell>
        <mxCell id="MZahAP7ZjcBy5LVu-B12-40" style="rounded=0;orthogonalLoop=1;jettySize=auto;html=1;entryX=0.5;entryY=0;entryDx=0;entryDy=0;endArrow=none;endFill=0;exitX=1;exitY=0.5;exitDx=0;exitDy=0;" parent="1" source="MZahAP7ZjcBy5LVu-B12-36" target="MZahAP7ZjcBy5LVu-B12-53" edge="1">
          <mxGeometry relative="1" as="geometry">
            <mxPoint x="428" y="390" as="targetPoint" />
          </mxGeometry>
        </mxCell>
        <mxCell id="MZahAP7ZjcBy5LVu-B12-36" value="&lt;div&gt;Exclusiva&lt;/div&gt;&lt;div&gt;Total&lt;/div&gt;&lt;div&gt;&lt;br&gt;&lt;/div&gt;&lt;div&gt;&lt;br&gt;&lt;/div&gt;" style="triangle;whiteSpace=wrap;html=1;rotation=0;direction=south;" parent="1" vertex="1">
          <mxGeometry x="368" y="260" width="70" height="65" as="geometry" />
        </mxCell>
        <mxCell id="MZahAP7ZjcBy5LVu-B12-39" style="rounded=0;orthogonalLoop=1;jettySize=auto;html=1;entryX=0.5;entryY=0;entryDx=0;entryDy=0;endArrow=none;endFill=0;" parent="1" source="MZahAP7ZjcBy5LVu-B12-36" target="MZahAP7ZjcBy5LVu-B12-33" edge="1">
          <mxGeometry relative="1" as="geometry" />
        </mxCell>
        <mxCell id="ZYv0RMSDHckvNxvjCgx5-7" style="edgeStyle=orthogonalEdgeStyle;rounded=0;orthogonalLoop=1;jettySize=auto;html=1;entryX=0.5;entryY=0;entryDx=0;entryDy=0;endArrow=none;endFill=0;" parent="1" source="MZahAP7ZjcBy5LVu-B12-53" target="ZYv0RMSDHckvNxvjCgx5-6" edge="1">
          <mxGeometry relative="1" as="geometry" />
        </mxCell>
        <mxCell id="MZahAP7ZjcBy5LVu-B12-53" value="&lt;div&gt;Capitulo&lt;/div&gt;" style="whiteSpace=wrap;html=1;align=center;" parent="1" vertex="1">
          <mxGeometry x="351" y="400" width="100" height="40" as="geometry" />
        </mxCell>
        <mxCell id="MZahAP7ZjcBy5LVu-B12-65" value="&lt;div&gt;disponible_hasta&lt;/div&gt;" style="ellipse;whiteSpace=wrap;html=1;align=center;" parent="1" vertex="1">
          <mxGeometry x="223" y="470" width="100" height="40" as="geometry" />
        </mxCell>
        <mxCell id="ZYv0RMSDHckvNxvjCgx5-4" style="rounded=0;orthogonalLoop=1;jettySize=auto;html=1;endArrow=none;endFill=0;" parent="1" source="MZahAP7ZjcBy5LVu-B12-66" target="MZahAP7ZjcBy5LVu-B12-53" edge="1">
          <mxGeometry relative="1" as="geometry">
            <mxPoint x="446" y="470" as="targetPoint" />
          </mxGeometry>
        </mxCell>
        <mxCell id="MZahAP7ZjcBy5LVu-B12-66" value="disponible_desde" style="ellipse;whiteSpace=wrap;html=1;align=center;" parent="1" vertex="1">
          <mxGeometry x="456" y="470" width="100" height="40" as="geometry" />
        </mxCell>
        <mxCell id="MZahAP7ZjcBy5LVu-B12-106" style="rounded=0;orthogonalLoop=1;jettySize=auto;html=1;entryX=0.5;entryY=1;entryDx=0;entryDy=0;endArrow=none;endFill=0;" parent="1" source="MZahAP7ZjcBy5LVu-B12-65" target="MZahAP7ZjcBy5LVu-B12-31" edge="1">
          <mxGeometry relative="1" as="geometry" />
        </mxCell>
        <mxCell id="xNMmBcrmGtZUjo-tdzeP-15" style="edgeStyle=orthogonalEdgeStyle;rounded=0;orthogonalLoop=1;jettySize=auto;html=1;entryX=1;entryY=0.75;entryDx=0;entryDy=0;endArrow=none;endFill=0;exitX=0;exitY=0.5;exitDx=0;exitDy=0;" parent="1" source="xNMmBcrmGtZUjo-tdzeP-47" target="MZahAP7ZjcBy5LVu-B12-1" edge="1">
          <mxGeometry relative="1" as="geometry" />
        </mxCell>
        <mxCell id="MZahAP7ZjcBy5LVu-B12-112" value="&lt;div&gt;Actor&lt;br&gt;&lt;/div&gt;" style="whiteSpace=wrap;html=1;align=center;" parent="1" vertex="1">
          <mxGeometry x="850" y="230" width="100" height="40" as="geometry" />
        </mxCell>
        <mxCell id="MZahAP7ZjcBy5LVu-B12-113" value="dni" style="ellipse;whiteSpace=wrap;html=1;align=center;fontStyle=4;" parent="1" vertex="1">
          <mxGeometry x="1000" y="170" width="100" height="40" as="geometry" />
        </mxCell>
        <mxCell id="MZahAP7ZjcBy5LVu-B12-114" value="nombre" style="ellipse;whiteSpace=wrap;html=1;align=center;" parent="1" vertex="1">
          <mxGeometry x="1000" y="230" width="100" height="40" as="geometry" />
        </mxCell>
        <mxCell id="MZahAP7ZjcBy5LVu-B12-115" style="rounded=0;orthogonalLoop=1;jettySize=auto;html=1;entryX=1;entryY=0.75;entryDx=0;entryDy=0;endArrow=none;endFill=0;" parent="1" source="MZahAP7ZjcBy5LVu-B12-116" target="MZahAP7ZjcBy5LVu-B12-112" edge="1">
          <mxGeometry relative="1" as="geometry" />
        </mxCell>
        <mxCell id="MZahAP7ZjcBy5LVu-B12-116" value="&lt;div&gt;apellidos&lt;/div&gt;" style="ellipse;whiteSpace=wrap;html=1;align=center;" parent="1" vertex="1">
          <mxGeometry x="1000" y="285" width="100" height="40" as="geometry" />
        </mxCell>
        <mxCell id="MZahAP7ZjcBy5LVu-B12-117" style="rounded=0;orthogonalLoop=1;jettySize=auto;html=1;entryX=1;entryY=0.25;entryDx=0;entryDy=0;endArrow=none;endFill=0;" parent="1" source="MZahAP7ZjcBy5LVu-B12-113" target="MZahAP7ZjcBy5LVu-B12-112" edge="1">
          <mxGeometry relative="1" as="geometry" />
        </mxCell>
        <mxCell id="MZahAP7ZjcBy5LVu-B12-118" style="rounded=0;orthogonalLoop=1;jettySize=auto;html=1;entryX=1;entryY=0.5;entryDx=0;entryDy=0;endArrow=none;endFill=0;" parent="1" source="MZahAP7ZjcBy5LVu-B12-114" target="MZahAP7ZjcBy5LVu-B12-112" edge="1">
          <mxGeometry relative="1" as="geometry" />
        </mxCell>
        <mxCell id="xNMmBcrmGtZUjo-tdzeP-31" style="edgeStyle=orthogonalEdgeStyle;rounded=0;orthogonalLoop=1;jettySize=auto;html=1;entryX=0;entryY=0.5;entryDx=0;entryDy=0;endArrow=none;endFill=0;" parent="1" source="MZahAP7ZjcBy5LVu-B12-120" target="xNMmBcrmGtZUjo-tdzeP-33" edge="1">
          <mxGeometry relative="1" as="geometry">
            <mxPoint x="-2.5" y="430" as="targetPoint" />
          </mxGeometry>
        </mxCell>
        <mxCell id="MZahAP7ZjcBy5LVu-B12-120" value="&lt;div&gt;Factura&lt;/div&gt;" style="whiteSpace=wrap;html=1;align=center;" parent="1" vertex="1">
          <mxGeometry x="-270" y="410" width="100" height="40" as="geometry" />
        </mxCell>
        <mxCell id="MZahAP7ZjcBy5LVu-B12-121" value="&lt;div&gt;numero_factura&lt;/div&gt;" style="ellipse;whiteSpace=wrap;html=1;align=center;fontStyle=4;" parent="1" vertex="1">
          <mxGeometry x="-440" y="400" width="100" height="40" as="geometry" />
        </mxCell>
        <mxCell id="MZahAP7ZjcBy5LVu-B12-122" value="fecha" style="ellipse;whiteSpace=wrap;html=1;align=center;" parent="1" vertex="1">
          <mxGeometry x="-220" y="500" width="100" height="40" as="geometry" />
        </mxCell>
        <mxCell id="MZahAP7ZjcBy5LVu-B12-127" style="rounded=0;orthogonalLoop=1;jettySize=auto;html=1;entryX=0.5;entryY=1;entryDx=0;entryDy=0;endArrow=none;endFill=0;" parent="1" source="MZahAP7ZjcBy5LVu-B12-128" target="xNMmBcrmGtZUjo-tdzeP-32" edge="1">
          <mxGeometry relative="1" as="geometry">
            <mxPoint x="80" y="450" as="targetPoint" />
          </mxGeometry>
        </mxCell>
        <mxCell id="MZahAP7ZjcBy5LVu-B12-128" value="&lt;div&gt;num_linea&lt;/div&gt;" style="ellipse;whiteSpace=wrap;html=1;align=center;fontStyle=4;" parent="1" vertex="1">
          <mxGeometry x="30" y="500" width="100" height="40" as="geometry" />
        </mxCell>
        <mxCell id="MZahAP7ZjcBy5LVu-B12-129" style="rounded=0;orthogonalLoop=1;jettySize=auto;html=1;entryX=0;entryY=0.25;entryDx=0;entryDy=0;endArrow=none;endFill=0;" parent="1" source="MZahAP7ZjcBy5LVu-B12-121" target="MZahAP7ZjcBy5LVu-B12-120" edge="1">
          <mxGeometry relative="1" as="geometry" />
        </mxCell>
        <mxCell id="MZahAP7ZjcBy5LVu-B12-130" style="rounded=0;orthogonalLoop=1;jettySize=auto;html=1;entryX=0.75;entryY=1;entryDx=0;entryDy=0;endArrow=none;endFill=0;" parent="1" source="MZahAP7ZjcBy5LVu-B12-122" target="MZahAP7ZjcBy5LVu-B12-120" edge="1">
          <mxGeometry relative="1" as="geometry" />
        </mxCell>
        <mxCell id="xNMmBcrmGtZUjo-tdzeP-38" style="edgeStyle=orthogonalEdgeStyle;rounded=0;orthogonalLoop=1;jettySize=auto;html=1;exitX=1;exitY=0.75;exitDx=0;exitDy=0;entryX=0.5;entryY=0;entryDx=0;entryDy=0;endArrow=none;endFill=0;" parent="1" source="MZahAP7ZjcBy5LVu-B12-157" target="xNMmBcrmGtZUjo-tdzeP-37" edge="1">
          <mxGeometry relative="1" as="geometry" />
        </mxCell>
        <mxCell id="MZahAP7ZjcBy5LVu-B12-157" value="&lt;div&gt;Cliente&lt;/div&gt;" style="whiteSpace=wrap;html=1;align=center;" parent="1" vertex="1">
          <mxGeometry x="-500" y="220" width="100" height="40" as="geometry" />
        </mxCell>
        <mxCell id="xNMmBcrmGtZUjo-tdzeP-26" style="rounded=0;orthogonalLoop=1;jettySize=auto;html=1;entryX=0;entryY=0.75;entryDx=0;entryDy=0;endArrow=none;endFill=0;" parent="1" source="MZahAP7ZjcBy5LVu-B12-159" target="MZahAP7ZjcBy5LVu-B12-157" edge="1">
          <mxGeometry relative="1" as="geometry" />
        </mxCell>
        <mxCell id="MZahAP7ZjcBy5LVu-B12-159" value="id_cliente" style="ellipse;whiteSpace=wrap;html=1;align=center;fontStyle=4;" parent="1" vertex="1">
          <mxGeometry x="-650" y="270" width="100" height="40" as="geometry" />
        </mxCell>
        <mxCell id="xNMmBcrmGtZUjo-tdzeP-25" style="rounded=0;orthogonalLoop=1;jettySize=auto;html=1;entryX=0;entryY=0.5;entryDx=0;entryDy=0;endArrow=none;endFill=0;" parent="1" source="MZahAP7ZjcBy5LVu-B12-161" target="MZahAP7ZjcBy5LVu-B12-157" edge="1">
          <mxGeometry relative="1" as="geometry" />
        </mxCell>
        <mxCell id="MZahAP7ZjcBy5LVu-B12-161" value="nombre" style="ellipse;whiteSpace=wrap;html=1;align=center;" parent="1" vertex="1">
          <mxGeometry x="-665" y="210" width="100" height="40" as="geometry" />
        </mxCell>
        <mxCell id="xNMmBcrmGtZUjo-tdzeP-24" style="rounded=0;orthogonalLoop=1;jettySize=auto;html=1;entryX=0;entryY=0.25;entryDx=0;entryDy=0;endArrow=none;endFill=0;" parent="1" source="MZahAP7ZjcBy5LVu-B12-163" target="MZahAP7ZjcBy5LVu-B12-157" edge="1">
          <mxGeometry relative="1" as="geometry" />
        </mxCell>
        <mxCell id="MZahAP7ZjcBy5LVu-B12-163" value="&lt;div&gt;apellidos&lt;/div&gt;" style="ellipse;whiteSpace=wrap;html=1;align=center;" parent="1" vertex="1">
          <mxGeometry x="-650" y="155" width="100" height="40" as="geometry" />
        </mxCell>
        <mxCell id="xNMmBcrmGtZUjo-tdzeP-23" style="rounded=0;orthogonalLoop=1;jettySize=auto;html=1;entryX=0;entryY=0;entryDx=0;entryDy=0;endArrow=none;endFill=0;" parent="1" source="MZahAP7ZjcBy5LVu-B12-165" target="MZahAP7ZjcBy5LVu-B12-157" edge="1">
          <mxGeometry relative="1" as="geometry" />
        </mxCell>
        <mxCell id="MZahAP7ZjcBy5LVu-B12-165" value="contrasenya" style="ellipse;whiteSpace=wrap;html=1;align=center;" parent="1" vertex="1">
          <mxGeometry x="-610" y="105" width="100" height="40" as="geometry" />
        </mxCell>
        <mxCell id="xNMmBcrmGtZUjo-tdzeP-27" style="rounded=0;orthogonalLoop=1;jettySize=auto;html=1;entryX=0;entryY=1;entryDx=0;entryDy=0;endArrow=none;endFill=0;" parent="1" source="MZahAP7ZjcBy5LVu-B12-167" target="MZahAP7ZjcBy5LVu-B12-157" edge="1">
          <mxGeometry relative="1" as="geometry" />
        </mxCell>
        <mxCell id="MZahAP7ZjcBy5LVu-B12-167" value="&lt;div&gt;codigo_postal&lt;/div&gt;" style="ellipse;whiteSpace=wrap;html=1;align=center;" parent="1" vertex="1">
          <mxGeometry x="-620" y="320" width="100" height="40" as="geometry" />
        </mxCell>
        <mxCell id="xNMmBcrmGtZUjo-tdzeP-21" style="rounded=0;orthogonalLoop=1;jettySize=auto;html=1;entryX=0.5;entryY=0;entryDx=0;entryDy=0;endArrow=none;endFill=0;" parent="1" source="MZahAP7ZjcBy5LVu-B12-169" target="MZahAP7ZjcBy5LVu-B12-157" edge="1">
          <mxGeometry relative="1" as="geometry" />
        </mxCell>
        <mxCell id="MZahAP7ZjcBy5LVu-B12-169" value="domicilio" style="ellipse;whiteSpace=wrap;html=1;align=center;" parent="1" vertex="1">
          <mxGeometry x="-470" y="40" width="100" height="40" as="geometry" />
        </mxCell>
        <mxCell id="xNMmBcrmGtZUjo-tdzeP-20" style="rounded=0;orthogonalLoop=1;jettySize=auto;html=1;entryX=0.75;entryY=0;entryDx=0;entryDy=0;endArrow=none;endFill=0;" parent="1" source="MZahAP7ZjcBy5LVu-B12-171" target="MZahAP7ZjcBy5LVu-B12-157" edge="1">
          <mxGeometry relative="1" as="geometry" />
        </mxCell>
        <mxCell id="MZahAP7ZjcBy5LVu-B12-171" value="fecha_nacimiento" style="ellipse;whiteSpace=wrap;html=1;align=center;" parent="1" vertex="1">
          <mxGeometry x="-400" y="80" width="100" height="40" as="geometry" />
        </mxCell>
        <mxCell id="MZahAP7ZjcBy5LVu-B12-172" value="email" style="ellipse;whiteSpace=wrap;html=1;align=center;" parent="1" vertex="1">
          <mxGeometry x="-370" y="130" width="100" height="40" as="geometry" />
        </mxCell>
        <mxCell id="xNMmBcrmGtZUjo-tdzeP-22" style="rounded=0;orthogonalLoop=1;jettySize=auto;html=1;entryX=0.25;entryY=0;entryDx=0;entryDy=0;endArrow=none;endFill=0;" parent="1" source="MZahAP7ZjcBy5LVu-B12-173" target="MZahAP7ZjcBy5LVu-B12-157" edge="1">
          <mxGeometry relative="1" as="geometry" />
        </mxCell>
        <mxCell id="MZahAP7ZjcBy5LVu-B12-173" value="num_tarjeta" style="ellipse;whiteSpace=wrap;html=1;align=center;" parent="1" vertex="1">
          <mxGeometry x="-570" y="60" width="100" height="40" as="geometry" />
        </mxCell>
        <mxCell id="MZahAP7ZjcBy5LVu-B12-175" style="rounded=0;orthogonalLoop=1;jettySize=auto;html=1;entryX=1;entryY=0;entryDx=0;entryDy=0;endArrow=none;endFill=0;" parent="1" source="MZahAP7ZjcBy5LVu-B12-172" target="MZahAP7ZjcBy5LVu-B12-157" edge="1">
          <mxGeometry relative="1" as="geometry" />
        </mxCell>
        <mxCell id="MZahAP7ZjcBy5LVu-B12-177" style="edgeStyle=orthogonalEdgeStyle;rounded=0;orthogonalLoop=1;jettySize=auto;html=1;entryX=0;entryY=0.25;entryDx=0;entryDy=0;endArrow=none;endFill=0;" parent="1" source="MZahAP7ZjcBy5LVu-B12-176" target="MZahAP7ZjcBy5LVu-B12-1" edge="1">
          <mxGeometry relative="1" as="geometry" />
        </mxCell>
        <mxCell id="MZahAP7ZjcBy5LVu-B12-178" style="edgeStyle=orthogonalEdgeStyle;rounded=0;orthogonalLoop=1;jettySize=auto;html=1;entryX=1;entryY=0.25;entryDx=0;entryDy=0;endArrow=none;endFill=0;exitX=0;exitY=0.5;exitDx=0;exitDy=0;" parent="1" source="MZahAP7ZjcBy5LVu-B12-176" target="MZahAP7ZjcBy5LVu-B12-157" edge="1">
          <mxGeometry relative="1" as="geometry">
            <Array as="points">
              <mxPoint x="-300" y="230" />
              <mxPoint x="-300" y="230" />
            </Array>
          </mxGeometry>
        </mxCell>
        <mxCell id="MZahAP7ZjcBy5LVu-B12-176" value="alquila" style="shape=rhombus;perimeter=rhombusPerimeter;whiteSpace=wrap;html=1;align=center;" parent="1" vertex="1">
          <mxGeometry x="-131.75" y="200" width="117.5" height="60" as="geometry" />
        </mxCell>
        <mxCell id="xNMmBcrmGtZUjo-tdzeP-4" style="rounded=0;orthogonalLoop=1;jettySize=auto;html=1;entryX=0;entryY=0.75;entryDx=0;entryDy=0;endArrow=none;endFill=0;exitX=1;exitY=0.5;exitDx=0;exitDy=0;" parent="1" source="ZYv0RMSDHckvNxvjCgx5-2" target="MZahAP7ZjcBy5LVu-B12-1" edge="1">
          <mxGeometry relative="1" as="geometry" />
        </mxCell>
        <mxCell id="ZYv0RMSDHckvNxvjCgx5-2" value="titulo" style="ellipse;whiteSpace=wrap;html=1;align=center;" parent="1" vertex="1">
          <mxGeometry x="210" y="270" width="100" height="40" as="geometry" />
        </mxCell>
        <mxCell id="ZYv0RMSDHckvNxvjCgx5-8" style="edgeStyle=orthogonalEdgeStyle;rounded=0;orthogonalLoop=1;jettySize=auto;html=1;entryX=0.5;entryY=1;entryDx=0;entryDy=0;endArrow=none;endFill=0;" parent="1" source="ZYv0RMSDHckvNxvjCgx5-5" target="ZYv0RMSDHckvNxvjCgx5-6" edge="1">
          <mxGeometry relative="1" as="geometry" />
        </mxCell>
        <mxCell id="ZYv0RMSDHckvNxvjCgx5-5" value="Serie" style="whiteSpace=wrap;html=1;align=center;" parent="1" vertex="1">
          <mxGeometry x="351" y="610" width="100" height="40" as="geometry" />
        </mxCell>
        <mxCell id="ZYv0RMSDHckvNxvjCgx5-6" value="tiene" style="shape=rhombus;perimeter=rhombusPerimeter;whiteSpace=wrap;html=1;align=center;" parent="1" vertex="1">
          <mxGeometry x="349" y="500" width="104" height="60" as="geometry" />
        </mxCell>
        <mxCell id="ZYv0RMSDHckvNxvjCgx5-10" style="rounded=0;orthogonalLoop=1;jettySize=auto;html=1;endArrow=none;endFill=0;" parent="1" source="ZYv0RMSDHckvNxvjCgx5-9" target="ZYv0RMSDHckvNxvjCgx5-6" edge="1">
          <mxGeometry relative="1" as="geometry" />
        </mxCell>
        <mxCell id="ZYv0RMSDHckvNxvjCgx5-9" value="temporada" style="ellipse;whiteSpace=wrap;html=1;align=center;" parent="1" vertex="1">
          <mxGeometry x="456" y="560" width="100" height="40" as="geometry" />
        </mxCell>
        <mxCell id="ZYv0RMSDHckvNxvjCgx5-13" style="edgeStyle=orthogonalEdgeStyle;rounded=0;orthogonalLoop=1;jettySize=auto;html=1;entryX=0.5;entryY=1;entryDx=0;entryDy=0;endArrow=none;endFill=0;" parent="1" source="ZYv0RMSDHckvNxvjCgx5-12" target="ZYv0RMSDHckvNxvjCgx5-5" edge="1">
          <mxGeometry relative="1" as="geometry" />
        </mxCell>
        <mxCell id="ZYv0RMSDHckvNxvjCgx5-12" value="titulo" style="ellipse;whiteSpace=wrap;html=1;align=center;fontStyle=4;" parent="1" vertex="1">
          <mxGeometry x="351" y="700" width="100" height="40" as="geometry" />
        </mxCell>
        <mxCell id="ZYv0RMSDHckvNxvjCgx5-18" value="&lt;font style=&quot;font-size: 36px;&quot;&gt;&lt;b&gt;ChangedTs se encuentran en todas las entidades&lt;/b&gt;&lt;/font&gt;" style="text;html=1;align=center;verticalAlign=middle;whiteSpace=wrap;rounded=0;" parent="1" vertex="1">
          <mxGeometry x="-1000" y="-50" width="320" height="260" as="geometry" />
        </mxCell>
        <mxCell id="ZYv0RMSDHckvNxvjCgx5-19" value="N" style="text;html=1;align=center;verticalAlign=middle;whiteSpace=wrap;rounded=0;" parent="1" vertex="1">
          <mxGeometry x="-380" y="202.5" width="30" height="25" as="geometry" />
        </mxCell>
        <mxCell id="ZYv0RMSDHckvNxvjCgx5-20" value="N" style="text;html=1;align=center;verticalAlign=middle;whiteSpace=wrap;rounded=0;movable=1;resizable=1;rotatable=1;deletable=1;editable=1;locked=0;connectable=1;" parent="1" vertex="1">
          <mxGeometry x="296" y="200" width="27" height="30" as="geometry" />
        </mxCell>
        <mxCell id="cwMv2yj0uLY75fUcJ7-9-5" style="rounded=0;orthogonalLoop=1;jettySize=auto;html=1;entryX=0;entryY=0.75;entryDx=0;entryDy=0;endArrow=none;endFill=0;" parent="1" source="cwMv2yj0uLY75fUcJ7-9-2" target="MZahAP7ZjcBy5LVu-B12-120" edge="1">
          <mxGeometry relative="1" as="geometry" />
        </mxCell>
        <mxCell id="cwMv2yj0uLY75fUcJ7-9-2" value="importe_base" style="ellipse;whiteSpace=wrap;html=1;align=center;" parent="1" vertex="1">
          <mxGeometry x="-440" y="460" width="100" height="40" as="geometry" />
        </mxCell>
        <mxCell id="cwMv2yj0uLY75fUcJ7-9-6" style="rounded=0;orthogonalLoop=1;jettySize=auto;html=1;entryX=0.25;entryY=1;entryDx=0;entryDy=0;endArrow=none;endFill=0;" parent="1" source="cwMv2yj0uLY75fUcJ7-9-4" target="MZahAP7ZjcBy5LVu-B12-120" edge="1">
          <mxGeometry relative="1" as="geometry" />
        </mxCell>
        <mxCell id="cwMv2yj0uLY75fUcJ7-9-4" value="importe_con_iva" style="ellipse;whiteSpace=wrap;html=1;align=center;" parent="1" vertex="1">
          <mxGeometry x="-340" y="500" width="100" height="40" as="geometry" />
        </mxCell>
        <mxCell id="cwMv2yj0uLY75fUcJ7-9-9" value="cobrado" style="ellipse;whiteSpace=wrap;html=1;align=center;" parent="1" vertex="1">
          <mxGeometry x="-123.00000000000001" y="115" width="100" height="40" as="geometry" />
        </mxCell>
        <mxCell id="cwMv2yj0uLY75fUcJ7-9-10" style="rounded=0;orthogonalLoop=1;jettySize=auto;html=1;entryX=0.5;entryY=0;entryDx=0;entryDy=0;exitX=0.5;exitY=1;exitDx=0;exitDy=0;endArrow=none;endFill=0;" parent="1" source="cwMv2yj0uLY75fUcJ7-9-9" target="MZahAP7ZjcBy5LVu-B12-176" edge="1">
          <mxGeometry relative="1" as="geometry" />
        </mxCell>
        <mxCell id="cwMv2yj0uLY75fUcJ7-9-12" style="rounded=0;orthogonalLoop=1;jettySize=auto;html=1;entryX=1;entryY=0;entryDx=0;entryDy=0;endArrow=none;endFill=0;" parent="1" source="cwMv2yj0uLY75fUcJ7-9-11" target="MZahAP7ZjcBy5LVu-B12-176" edge="1">
          <mxGeometry relative="1" as="geometry" />
        </mxCell>
        <mxCell id="cwMv2yj0uLY75fUcJ7-9-11" value="valoracion" style="ellipse;whiteSpace=wrap;html=1;align=center;" parent="1" vertex="1">
          <mxGeometry x="-23" y="155" width="100" height="40" as="geometry" />
        </mxCell>
        <mxCell id="cwMv2yj0uLY75fUcJ7-9-17" value="N" style="text;html=1;align=center;verticalAlign=middle;whiteSpace=wrap;rounded=0;" parent="1" vertex="1">
          <mxGeometry x="363" y="450" width="30" height="20" as="geometry" />
        </mxCell>
        <mxCell id="cwMv2yj0uLY75fUcJ7-9-18" value="1" style="text;html=1;align=center;verticalAlign=middle;whiteSpace=wrap;rounded=0;" parent="1" vertex="1">
          <mxGeometry x="366" y="580" width="30" height="20" as="geometry" />
        </mxCell>
        <mxCell id="V4MKUyst3g-tXD8fQZPd-3" value="1" style="text;html=1;align=center;verticalAlign=middle;whiteSpace=wrap;rounded=0;" parent="1" vertex="1">
          <mxGeometry x="293" y="235" width="30" height="30" as="geometry" />
        </mxCell>
        <mxCell id="xNMmBcrmGtZUjo-tdzeP-29" style="rounded=0;orthogonalLoop=1;jettySize=auto;html=1;entryX=1;entryY=1;entryDx=0;entryDy=0;endArrow=none;endFill=0;" parent="1" source="xNMmBcrmGtZUjo-tdzeP-28" target="MZahAP7ZjcBy5LVu-B12-1" edge="1">
          <mxGeometry relative="1" as="geometry" />
        </mxCell>
        <mxCell id="xNMmBcrmGtZUjo-tdzeP-28" value="version_idioma" style="ellipse;whiteSpace=wrap;html=1;align=center;" parent="1" vertex="1">
          <mxGeometry x="500" y="330" width="100" height="40" as="geometry" />
        </mxCell>
        <mxCell id="xNMmBcrmGtZUjo-tdzeP-32" value="Linea de factura" style="shape=ext;margin=3;double=1;whiteSpace=wrap;html=1;align=center;" parent="1" vertex="1">
          <mxGeometry x="30" y="410" width="100" height="40" as="geometry" />
        </mxCell>
        <mxCell id="xNMmBcrmGtZUjo-tdzeP-34" style="edgeStyle=orthogonalEdgeStyle;rounded=0;orthogonalLoop=1;jettySize=auto;html=1;entryX=0;entryY=0.5;entryDx=0;entryDy=0;endArrow=none;endFill=0;" parent="1" source="xNMmBcrmGtZUjo-tdzeP-33" target="xNMmBcrmGtZUjo-tdzeP-32" edge="1">
          <mxGeometry relative="1" as="geometry" />
        </mxCell>
        <mxCell id="xNMmBcrmGtZUjo-tdzeP-33" value="tiene" style="shape=rhombus;perimeter=rhombusPerimeter;whiteSpace=wrap;html=1;align=center;" parent="1" vertex="1">
          <mxGeometry x="-120" y="400" width="104" height="60" as="geometry" />
        </mxCell>
        <mxCell id="xNMmBcrmGtZUjo-tdzeP-35" value="1" style="text;html=1;align=center;verticalAlign=middle;whiteSpace=wrap;rounded=0;" parent="1" vertex="1">
          <mxGeometry x="-160" y="400" width="30" height="20" as="geometry" />
        </mxCell>
        <mxCell id="xNMmBcrmGtZUjo-tdzeP-36" value="N" style="text;html=1;align=center;verticalAlign=middle;whiteSpace=wrap;rounded=0;" parent="1" vertex="1">
          <mxGeometry x="-10" y="400" width="30" height="20" as="geometry" />
        </mxCell>
        <mxCell id="xNMmBcrmGtZUjo-tdzeP-39" style="edgeStyle=orthogonalEdgeStyle;rounded=0;orthogonalLoop=1;jettySize=auto;html=1;exitX=0.5;exitY=1;exitDx=0;exitDy=0;entryX=0.5;entryY=0;entryDx=0;entryDy=0;endArrow=none;endFill=0;" parent="1" source="xNMmBcrmGtZUjo-tdzeP-37" target="MZahAP7ZjcBy5LVu-B12-120" edge="1">
          <mxGeometry relative="1" as="geometry" />
        </mxCell>
        <mxCell id="xNMmBcrmGtZUjo-tdzeP-37" value="registra" style="shape=rhombus;perimeter=rhombusPerimeter;whiteSpace=wrap;html=1;align=center;" parent="1" vertex="1">
          <mxGeometry x="-272" y="285" width="104" height="60" as="geometry" />
        </mxCell>
        <mxCell id="xNMmBcrmGtZUjo-tdzeP-40" value="N" style="text;html=1;align=center;verticalAlign=middle;whiteSpace=wrap;rounded=0;" parent="1" vertex="1">
          <mxGeometry x="-250" y="380" width="30" height="20" as="geometry" />
        </mxCell>
        <mxCell id="xNMmBcrmGtZUjo-tdzeP-41" value="1" style="text;html=1;align=center;verticalAlign=middle;whiteSpace=wrap;rounded=0;" parent="1" vertex="1">
          <mxGeometry x="-380" y="250" width="30" height="20" as="geometry" />
        </mxCell>
        <mxCell id="xNMmBcrmGtZUjo-tdzeP-44" style="edgeStyle=orthogonalEdgeStyle;rounded=0;orthogonalLoop=1;jettySize=auto;html=1;entryX=0.5;entryY=0;entryDx=0;entryDy=0;endArrow=none;endFill=0;" parent="1" source="xNMmBcrmGtZUjo-tdzeP-43" target="xNMmBcrmGtZUjo-tdzeP-32" edge="1">
          <mxGeometry relative="1" as="geometry" />
        </mxCell>
        <mxCell id="xNMmBcrmGtZUjo-tdzeP-43" value="referencia" style="shape=rhombus;perimeter=rhombusPerimeter;whiteSpace=wrap;html=1;align=center;" parent="1" vertex="1">
          <mxGeometry x="28" y="285" width="104" height="60" as="geometry" />
        </mxCell>
        <mxCell id="xNMmBcrmGtZUjo-tdzeP-45" value="N" style="text;html=1;align=center;verticalAlign=middle;whiteSpace=wrap;rounded=0;" parent="1" vertex="1">
          <mxGeometry x="80" y="380" width="30" height="20" as="geometry" />
        </mxCell>
        <mxCell id="xNMmBcrmGtZUjo-tdzeP-46" value="Débil de identidad" style="text;html=1;align=center;verticalAlign=middle;whiteSpace=wrap;rounded=0;" parent="1" vertex="1">
          <mxGeometry x="-95.12" y="360" width="54.25" height="30" as="geometry" />
        </mxCell>
        <mxCell id="xNMmBcrmGtZUjo-tdzeP-48" style="edgeStyle=orthogonalEdgeStyle;rounded=0;orthogonalLoop=1;jettySize=auto;html=1;entryX=0;entryY=0.5;entryDx=0;entryDy=0;endArrow=none;endFill=0;" parent="1" source="xNMmBcrmGtZUjo-tdzeP-47" target="MZahAP7ZjcBy5LVu-B12-112" edge="1">
          <mxGeometry relative="1" as="geometry" />
        </mxCell>
        <mxCell id="xNMmBcrmGtZUjo-tdzeP-47" value="actua" style="shape=rhombus;perimeter=rhombusPerimeter;whiteSpace=wrap;html=1;align=center;" parent="1" vertex="1">
          <mxGeometry x="670" y="220" width="104" height="60" as="geometry" />
        </mxCell>
        <mxCell id="xNMmBcrmGtZUjo-tdzeP-49" value="N" style="text;html=1;align=center;verticalAlign=middle;whiteSpace=wrap;rounded=0;" parent="1" vertex="1">
          <mxGeometry x="500" y="227.5" width="30" height="20" as="geometry" />
        </mxCell>
        <mxCell id="xNMmBcrmGtZUjo-tdzeP-50" value="N" style="text;html=1;align=center;verticalAlign=middle;whiteSpace=wrap;rounded=0;" parent="1" vertex="1">
          <mxGeometry x="810" y="227.5" width="30" height="20" as="geometry" />
        </mxCell>
        <mxCell id="xNMmBcrmGtZUjo-tdzeP-53" style="rounded=0;orthogonalLoop=1;jettySize=auto;html=1;entryX=0;entryY=0;entryDx=0;entryDy=0;endArrow=none;endFill=0;" parent="1" source="xNMmBcrmGtZUjo-tdzeP-51" target="MZahAP7ZjcBy5LVu-B12-176" edge="1">
          <mxGeometry relative="1" as="geometry" />
        </mxCell>
        <mxCell id="xNMmBcrmGtZUjo-tdzeP-51" value="facturado" style="ellipse;whiteSpace=wrap;html=1;align=center;" parent="1" vertex="1">
          <mxGeometry x="-223" y="155" width="100" height="40" as="geometry" />
        </mxCell>
        <mxCell id="xNMmBcrmGtZUjo-tdzeP-56" style="rounded=0;orthogonalLoop=1;jettySize=auto;html=1;exitX=1;exitY=0.5;exitDx=0;exitDy=0;entryX=0;entryY=0.5;entryDx=0;entryDy=0;endArrow=none;endFill=0;" parent="1" source="xNMmBcrmGtZUjo-tdzeP-54" target="xNMmBcrmGtZUjo-tdzeP-55" edge="1">
          <mxGeometry relative="1" as="geometry" />
        </mxCell>
        <mxCell id="xNMmBcrmGtZUjo-tdzeP-54" value="Tarifa" style="whiteSpace=wrap;html=1;align=center;" parent="1" vertex="1">
          <mxGeometry x="850" y="365" width="100" height="40" as="geometry" />
        </mxCell>
        <mxCell id="xNMmBcrmGtZUjo-tdzeP-55" value="incremento" style="ellipse;whiteSpace=wrap;html=1;align=center;fontStyle=0" parent="1" vertex="1">
          <mxGeometry x="1000" y="390" width="100" height="40" as="geometry" />
        </mxCell>
        <mxCell id="xNMmBcrmGtZUjo-tdzeP-58" style="edgeStyle=orthogonalEdgeStyle;rounded=0;orthogonalLoop=1;jettySize=auto;html=1;entryX=1;entryY=0.75;entryDx=0;entryDy=0;endArrow=none;endFill=0;" parent="1" source="xNMmBcrmGtZUjo-tdzeP-57" target="MZahAP7ZjcBy5LVu-B12-1" edge="1">
          <mxGeometry relative="1" as="geometry">
            <mxPoint x="600" y="280" as="targetPoint" />
            <Array as="points">
              <mxPoint x="620" y="330" />
              <mxPoint x="620" y="260" />
              <mxPoint x="470" y="260" />
              <mxPoint x="470" y="250" />
            </Array>
          </mxGeometry>
        </mxCell>
        <mxCell id="xNMmBcrmGtZUjo-tdzeP-60" style="edgeStyle=orthogonalEdgeStyle;rounded=0;orthogonalLoop=1;jettySize=auto;html=1;exitX=1;exitY=0.5;exitDx=0;exitDy=0;entryX=0;entryY=0.5;entryDx=0;entryDy=0;endArrow=none;endFill=0;" parent="1" source="xNMmBcrmGtZUjo-tdzeP-57" target="xNMmBcrmGtZUjo-tdzeP-54" edge="1">
          <mxGeometry relative="1" as="geometry">
            <Array as="points">
              <mxPoint x="800" y="330" />
              <mxPoint x="800" y="385" />
            </Array>
          </mxGeometry>
        </mxCell>
        <mxCell id="xNMmBcrmGtZUjo-tdzeP-57" value="aplica" style="shape=rhombus;perimeter=rhombusPerimeter;whiteSpace=wrap;html=1;align=center;" parent="1" vertex="1">
          <mxGeometry x="670" y="300" width="104" height="60" as="geometry" />
        </mxCell>
        <mxCell id="xNMmBcrmGtZUjo-tdzeP-59" value="N" style="text;html=1;align=center;verticalAlign=middle;whiteSpace=wrap;rounded=0;" parent="1" vertex="1">
          <mxGeometry x="500" y="260" width="30" height="20" as="geometry" />
        </mxCell>
        <mxCell id="xNMmBcrmGtZUjo-tdzeP-61" value="1" style="text;html=1;align=center;verticalAlign=middle;whiteSpace=wrap;rounded=0;" parent="1" vertex="1">
          <mxGeometry x="810" y="385" width="30" height="20" as="geometry" />
        </mxCell>
        <mxCell id="nnZnRhbB5dmyW38zv93C-2" style="rounded=0;orthogonalLoop=1;jettySize=auto;html=1;entryX=1;entryY=0.5;entryDx=0;entryDy=0;endArrow=none;endFill=0;exitX=0;exitY=0.5;exitDx=0;exitDy=0;" edge="1" parent="1" source="nnZnRhbB5dmyW38zv93C-1" target="xNMmBcrmGtZUjo-tdzeP-54">
          <mxGeometry relative="1" as="geometry" />
        </mxCell>
        <mxCell id="nnZnRhbB5dmyW38zv93C-1" value="id" style="ellipse;whiteSpace=wrap;html=1;align=center;fontStyle=4" vertex="1" parent="1">
          <mxGeometry x="1000" y="340" width="100" height="40" as="geometry" />
        </mxCell>
      </root>
    </mxGraphModel>
  </diagram>
</mxfile>
